<?xml version="1.0" encoding="UTF-8"?>
<svg id="Lag_1" xmlns="http://www.w3.org/2000/svg" version="1.1" viewBox="0 0 251.7 247.8">
  <!-- Generator: Adobe Illustrator 30.0.0, SVG Export Plug-In . SVG Version: 2.1.1 Build 123)  -->
  <defs>
    <style>
      .st0 {
        fill: #c97055;
      }

      .st1 {
        fill: #e1b3c7;
      }
    </style>
  </defs>
  <path id="blomst" class="st1" d="M147,61.3c4.1-1.7,12.2-4.8,18.6-13.2s5.2-8.5,7-14.5c1.4-4.5,4.2-9.1,1.3-14.2s-8.6-6.8-11.9-7.9c-5.1-1.7-12.2,1.3-16.2,4.2-3.7,2.7-6.3,6.9-10.7,8.9-5,2.4-8.2,2.6-11.7,7.4s-6.7,7.8-8.6,12.7-4.2,8.5-11.8,8c-5.5-13.8,26.6-30.8,11.8-41.9-16-11.9-35.7,2.7-33.1,21.2s8.1,16.8,7.6,27.1c-4.4,1-7.9-10.1-9.1-13.3-2.1-5.4-2.8-11.4-8.7-13.8-10.5-4.2-23.3,2.7-28.6,11.8s-7.6,20.1,2.4,27.4c4,2.9,24.1,13.8,19,19.9-4.3,5.1-11.4-2.4-14.6-4.5-5.2-3.4-10.2-6.9-16.6-7.6-14-1.3-21.3,13.1-19.6,25.5s20.9,13.8,32,11.4c4.2-.9,14.1-4.7,18-2.7,10,5.3-9.5,12.7-12.6,14.4-8.5,4.5-20.3,7.3-24.6,16.9-2.2,4.9-2.6,12.1-.6,17,5.8,14.7,23.1,21,38.3,20,8.4-.6,17.1-5.5,18.9-14.4s-2.5-16.6-.9-25c.6-2.9,2.1-5.2,2.5-8.2s-1-6.1,0-7.7c3.8-6.3,7.5,5.1,7.7,7.9.3,5.6,0,11.2,0,16.8s-.3,13.8,2.5,17.9c7,10.1,19.9,8.3,29.2,3.9,5.1-2.4,10.4-4.2,14.2-8.5,4.2-4.8,7.2-14.8,4.2-20.9s-8.6-9.3-12.7-13.7-6.7-8.6-10.3-12.6-9-5.5-11-9.5c-2.9-6,4.4-6.4,8.9-5.8s9.6,6.2,12.8,10.6,6.6,8.5,12.4,12.3,8.3,5.6,13.8,3c4.9-2.3,7.8-9.2,8.7-14,1.6-9.2-1-22-11-25.1s-9.9-.8-14.9-3.4-5.3-8,.6-9.3,10.2,1.9,15.9,4.3,10.9,2,16.3,4.1c5.6,2.2,7.9,6,11.9,10s5.3,7,6,14.6c.5,5.6,4.2,9.2,5.4,14.7,1.1,5.2,7.2,8.5,6.5,14-1.2,8.7-9,2.8-11.8-1.3-3-4.5-4.8-10.3-10.3-11.9s-12,1.9-15.6,7c-2.8,4.1-9.1,9.8-6.2,15.1,2.5,4.5,9.6,5.3,14.2,5.5s14-2.4,18.3.7,5.2,10.9,2.3,14.4-5.2,1.8-7.4,3-4.5,4.1-6.6,6c-5.5,5.1-11.8,4.8-17.7,8.6-3,1.9-4.1,5-6.8,7.3s-6.1,4.9-8.9,8.2c-5,5.8-13.4,4.1-19.2,9.9-4.2,4.2-7,6-12.7,7.8s-6.1,1.7-5.3,5.3c1.2,5.9,9.9,10.6,14.8,12.8,10.5,4.7,17.9,1.2,23.7-8,4.1-6.4,9.4-11.8,13.1-18.5,3.2-5.8,10.4-11.4,17.3-8.4s8.6,13.8,10.6,20.6,1.3,6,4.5,7c2.8.9,6.4-.4,8.5-2.2,6.4-5.5,3.2-16,.3-22.5-3.1-7.1-2.4-10.6.6-17.4s1.2-12.6,4-18.1c1.6-3.2,4.8-5.7,6.2-9s1.3-9.2,1.6-13.7c.5-6.7,1.6-13.7,2.2-20.5.2-2.2,1-4.6.8-7.2s-1.5-5.9-.9-8.8c2-8.6,15.2-6,21.4-10.1,5.3-3.5,11.2-10.5,9.2-17.5-2-7-10.3-8.7-15.8-11.6-6.9-3.6-12.9-8.1-18.6.4s-.9,13.7-4.8,18.3-8.6-4.5-11.2-7.4-4-1.6-7.2-2.8-4.5-3.1-6.6-4.2c-5.3-2.9-9.8-1.6-15.3-2.9s-4.6-1.9-7.2-2.2-5.2,0-7.7,0-8.6-5.9-4.4-7.7Z"/>
  <path id="blomst-hoved" class="st0" d="M109.5,62.6c-15.5,0-21,5.5-26.6,19.1s-20.6,19-9.4,30c5,4.9,10.4,4.3,15.3,0s4.5-11,8.9-14.2,10.4-1.5,14.7-4.5,8.5-7,10.6-10.5c7-12.2-2-21.1-13.6-19.9Z"/>
</svg>